<?xml version="1.0" encoding="UTF-8" standalone="no"?>
<!-- Created with Inkscape (http://www.inkscape.org/) -->
<svg
   xmlns:svg="http://www.w3.org/2000/svg"
   xmlns="http://www.w3.org/2000/svg"
   version="1.0"
   width="381.397"
   height="381.577"
   viewBox="0 0 381.397 381.577"
   id="Layer_1"
   xml:space="preserve"
   style="overflow:visible"><defs
   id="defs24" />
<path
   d="M 371.834,191.03 C 371.834,291.05 290.975,372.014 190.929,372.014 C 90.879,372.014 9.562,291.049 9.562,191.03 C 9.563,90.536 90.879,9.563 190.929,9.563 C 290.975,9.563 371.834,90.536 371.834,191.03"
   id="path3"
   style="fill:#ffffff" />
<path
   d="M 371.834,191.03 C 371.834,291.05 290.975,372.014 190.929,372.014 C 90.879,372.014 9.562,291.049 9.562,191.03 C 9.563,90.536 90.879,9.563 190.929,9.563 C 290.975,9.563 371.834,90.536 371.834,191.03 z"
   id="path5"
   style="fill:none;stroke:#d31145;stroke-width:19.12479973" />
<path
   d="M 354.933,191.03 C 354.933,281.522 281.38,354.867 190.929,354.867 C 100.472,354.867 26.921,281.522 26.921,191.03 C 26.921,100.054 100.472,26.71 190.929,26.71 C 281.38,26.71 354.933,100.055 354.933,191.03"
   id="path7"
   style="fill:#0078c1" />
<path
   d="M 127.428,174.832 C 126.057,172.934 123.315,172.45 119.658,172.45 C 105.956,172.45 102.3,191.03 102.3,199.125 C 102.3,207.703 104.128,215.314 113.264,215.314 C 121.486,215.314 125.142,207.219 126.971,202.456 L 157.122,202.456 C 151.642,227.224 136.564,239.133 112.808,239.133 C 77.63,239.133 70.779,215.798 70.779,199.6 C 70.779,170.069 89.051,148.166 120.573,148.166 C 143.416,148.166 160.779,159.117 160.322,183.41 L 129.714,183.41 C 130.17,179.121 129.256,176.739 127.428,174.832"
   id="path9"
   style="fill:#ffffff" />
<path
   d="M 212.401,212.941 L 207.831,236.751 C 207.831,236.751 199.607,237.226 194.58,237.226 C 188.187,237.701 179.051,238.184 174.024,235.319 C 168.544,231.988 166.259,225.317 166.259,219.13 C 166.259,214.841 167.173,211.51 168.087,207.704 L 175.395,173.409 L 161.688,173.409 L 165.801,153.405 L 179.508,153.405 L 184.531,128.163 L 215.597,128.163 L 210.116,153.405 L 226.56,153.405 L 222.453,173.409 L 206.917,173.409 L 201.436,200.558 C 201.436,201.982 200.522,205.796 200.522,208.653 C 200.522,211.51 203.718,212.942 205.546,212.942 C 210.573,212.941 213.315,212.941 212.401,212.941"
   id="path11"
   style="fill:#ffffff" />
<path
   d="M 257.626,217.222 C 253.973,217.697 247.574,217.222 247.574,211.034 C 247.574,204.838 253.515,202.456 258.997,201.507 C 264.481,200.558 269.046,199.6 274.073,196.743 C 272.246,209.602 264.939,215.798 257.626,217.222 M 270.417,147.208 C 249.859,147.208 235.243,154.828 227.931,174.357 L 258.083,174.357 C 261.282,170.068 264.938,167.695 271.331,167.695 C 275.901,167.212 282.751,167.695 281.837,173.408 C 280.466,179.596 265.847,181.977 257.169,182.452 C 232.958,184.359 216.511,192.454 216.511,215.314 C 216.511,231.987 229.302,238.183 243.921,238.183 C 253.059,238.183 264.025,234.843 269.503,227.698 L 269.96,227.698 L 268.132,236.751 L 298.287,236.751 C 298.287,236.751 311.075,183.885 311.075,170.552 C 311.076,149.59 285.494,147.208 270.417,147.208 z"
   id="path13"
   style="fill:#ffffff" />
<path
   d="M 318.845,240.082 C 314.275,240.082 310.161,236.751 310.161,231.513 C 310.161,226.749 314.274,222.944 318.845,222.944 C 323.409,222.944 327.523,226.75 327.523,231.513 C 327.523,236.751 323.41,240.082 318.845,240.082"
   id="path15"
   style="fill:#ffffff" />
<path
   d="M 318.845,224.367 C 315.189,224.367 311.99,227.698 311.99,231.513 C 311.99,235.802 315.189,238.659 318.845,238.659 C 322.952,238.659 325.695,235.803 325.695,231.513 C 325.695,227.698 322.953,224.367 318.845,224.367"
   id="path17"
   style="fill:#0078c1" />
<path
   d="M 321.582,236.751 L 318.846,232.462 L 317.018,232.462 L 317.018,236.751 L 315.647,236.751 L 315.647,226.749 L 319.303,226.749 C 321.582,226.749 322.953,227.698 322.953,229.605 C 322.953,231.038 321.582,231.987 320.211,232.461 L 322.953,236.75 L 321.582,236.75"
   id="path19"
   style="fill:#ffffff" />
<path
   d="M 321.125,229.605 C 321.125,228.181 320.211,227.698 319.303,227.698 L 317.018,227.698 L 317.018,231.038 L 318.846,231.038 C 320.21,231.038 321.125,231.038 321.125,229.605"
   id="path21"
   style="fill:#0078c1" />
</svg>